<svg height="939" width="1466" viewBox="1039 139 1466 939" style="background-color:transparent;" preserveAspectRatio="xMinYMin meet" xmlns:xlink="http://www.w3.org/1999/xlink" xmlns="http://www.w3.org/2000/svg"><g transform="translate(0,0)"><path style="fill:none;stroke:#333333;stroke-width:2;" d="M1865,531 C1909.5,531 1909.5,530  1954,530"/><polyline style="fill:#ffffff;stroke:#333333;stroke-width:2;fill-opacity:0;" points="1936,540 1954,530 1936,520"/><text style="font-weight:Normal; font-size: 12px; text-anchor: middle; font-family: arial,helvetica; fill: #333333;" y="516" x="1940"/><text style="font-weight:Normal; font-size: 12px; text-anchor: start; font-family: arial,helvetica; fill: #333333;" y="530" x="1909"/><text style="font-weight:Normal; font-size: 12px; text-anchor: middle; font-family: arial,helvetica; fill: #333333;" y="516" x="1877"/></g><g transform="translate(0,0)"><g transform="matrix(1,0,0,1,1813,769)"><path style="fill:rgb(51,153,255);stroke:rgb(45,137,229);stroke-width:3.0;" d="m90.71737695647968,29.26881934366494c0,4.810975287874417 -3.9198116144385375,8.710332960793401 -8.756022701499473,8.710332960793401l-73.178290593651,0c-4.836211087060936,0 -8.756022701499473,-3.8993576729189847 -8.756022701499473,-8.710332960793401l0,-18.043706595790123c0,-4.810975287874417 3.9198116144385375,-8.710332960793401 8.756022701499473,-8.710332960793401l74.42885810662564,-2.488593724047799c4.836703113623418,0 8.756514728061957,5.143889067438901 8.756514728061957,9.954864355313317l-1.2510759404225358,19.287748531187916z"/></g><text style="font-weight:bold; font-size: 12px; text-anchor: middle; font-family: arial,helvetica; fill: #ffffff;" y="792" x="1859">Confirm</text></g><g transform="translate(0,0)"><path style="fill:none;stroke:#333333;stroke-width:2;" d="M1753,764 C1781,764 1781,788  1809,788"/><polyline style="fill:#ffffff;stroke:#333333;stroke-width:2;fill-opacity:0;" points="1791,797 1809,788 1792,777"/><text style="font-weight:Normal; font-size: 12px; text-anchor: middle; font-family: arial,helvetica; fill: #333333;" y="768" x="1801"/><text style="font-weight:Normal; font-size: 12px; text-anchor: start; font-family: arial,helvetica; fill: #333333;" y="776" x="1781"/><text style="font-weight:Normal; font-size: 12px; text-anchor: middle; font-family: arial,helvetica; fill: #333333;" y="755" x="1770"/></g><g transform="translate(0,0)"><g transform="matrix(1,0,0,1,1873,832)"><path style="fill:none;stroke:#333333;stroke-width:3.0;" d="m134.10394854436126,29.26881934366494c0,4.810975287874417 -5.794504125691751,8.710332960793401 -12.943685732651396,8.710332960793401l-108.17660348626669,0c-7.149181606959645,0 -12.943685732651396,-3.8993576729189847 -12.943685732651396,-8.710332960793401l0,-18.043706595790123c0,-4.810975287874417 5.794504125691751,-8.710332960793401 12.943685732651396,-8.710332960793401l110.02526850544659,-2.488593724047799c7.1499089505737485,0 12.9444130762655,5.143889067438901 12.9444130762655,9.954864355313317l-1.84941660758114,19.287748531187916z"/></g><text style="font-weight:bold; font-size: 12px; text-anchor: middle; font-family: arial,helvetica; fill: #333333;" y="855" x="1941">Invite interpreter</text></g><g transform="translate(0,0)"><path style="fill:none;stroke:#333333;stroke-width:2;" d="M1859,809 C1859,830 1864,851  1869,851"/><polyline style="fill:#ffffff;stroke:#333333;stroke-width:2;fill-opacity:0;" points="1850,857 1869,851 1854,837"/><text style="font-weight:Normal; font-size: 12px; text-anchor: middle; font-family: arial,helvetica; fill: #333333;" y="831" x="1880"/><text style="font-weight:Normal; font-size: 12px; text-anchor: start; font-family: arial,helvetica; fill: #333333;" y="837" x="1862"/><text style="font-weight:Normal; font-size: 12px; text-anchor: middle; font-family: arial,helvetica; fill: #333333;" y="817" x="1876"/></g><g transform="translate(0,0)"><g transform="matrix(1,0,0,1,1235,403)"><path style="fill:rgb(102,102,255);stroke:rgb(91,91,229);stroke-width:3.0;" d="m112.41066275042046,29.26881934366494c0,4.810975287874417 -4.857157870065144,8.710332960793401 -10.849854217075434,8.710332960793401l-90.67744703995882,0c-5.992696347010289,0 -10.849854217075434,-3.8993576729189847 -10.849854217075434,-8.710332960793401l0,-18.043706595790123c0,-4.810975287874417 4.857157870065144,-8.710332960793401 10.849854217075434,-8.710332960793401l92.2270633060361,-2.488593724047799c5.993306032098583,0 10.850463902163726,5.143889067438901 10.850463902163726,9.954864355313317l-1.5502462740018377,19.287748531187916z"/></g><text style="font-weight:bold; font-size: 12px; text-anchor: middle; font-family: arial,helvetica; fill: #ffffff;" y="426" x="1292">Registration</text></g><g transform="translate(0,0)"><g transform="matrix(1,0,0,1,2045,621)"><path style="fill:none;stroke:#333333;stroke-width:3.0;" d="m102.55007829862919,29.26881934366494c0,4.810975287874417 -4.431091390234868,8.710332960793401 -9.89811261908636,8.710332960793401l-82.7232850189098,0c-5.467021228851492,0 -9.89811261908636,-3.8993576729189847 -9.89811261908636,-8.710332960793401l0,-18.043706595790123c0,-4.810975287874417 4.431091390234868,-8.710332960793401 9.89811261908636,-8.710332960793401l84.1369700335768,-2.488593724047799c5.46757743279169,0 9.898668823026558,5.143889067438901 9.898668823026558,9.954864355313317l-1.4142597587385186,19.287748531187916z"/></g><text style="font-weight:bold; font-size: 12px; text-anchor: middle; font-family: arial,helvetica; fill: #333333;" y="644" x="2097">Stop timer</text></g><g transform="translate(0,0)"><path style="fill:none;stroke:#333333;stroke-width:2;" d="M2043,555 C2043,586 2097,586  2097,617"/><polyline style="fill:#ffffff;stroke:#333333;stroke-width:2;fill-opacity:0;" points="2085,600 2097,617 2105,598"/><text style="font-weight:Normal; font-size: 12px; text-anchor: middle; font-family: arial,helvetica; fill: #333333;" y="597" x="2097"/><text style="font-weight:Normal; font-size: 12px; text-anchor: start; font-family: arial,helvetica; fill: #333333;" y="586" x="2070"/><text style="font-weight:Normal; font-size: 12px; text-anchor: middle; font-family: arial,helvetica; fill: #333333;" y="555" x="2063"/></g><g transform="translate(0,0)"><g transform="matrix(1,0,0,1,1911,685)"><path style="fill:rgb(0,153,0);stroke:rgb(0,127,0);stroke-width:3.0;" d="m136.0760654347195,29.26881934366494c0,4.810975287874417 -5.879717421657806,8.710332960793401 -13.13403405224921,8.710332960793401l-109.76743589047648,0c-7.254316630591403,0 -13.13403405224921,-3.8993576729189847 -13.13403405224921,-8.710332960793401l0,-18.043706595790123c0,-4.810975287874417 5.879717421657806,-8.710332960793401 13.13403405224921,-8.710332960793401l111.64328715993844,-2.488593724047799c7.255054670435126,0 13.134772092092932,5.143889067438901 13.134772092092932,9.954864355313317l-1.8766139106338036,19.287748531187916z"/></g><text style="font-weight:bold; font-size: 12px; text-anchor: middle; font-family: arial,helvetica; fill: #ffffff;" y="708" x="1980">Charge payment</text></g><g transform="translate(0,0)"><path style="fill:none;stroke:#333333;stroke-width:2;" d="M2043,640 C1963,672 2133,672  2053,704"/><polyline style="fill:#ffffff;stroke:#333333;stroke-width:2;fill-opacity:0;" points="2064,687 2053,704 2072,706"/><text style="font-weight:Normal; font-size: 12px; text-anchor: middle; font-family: arial,helvetica; fill: #333333;" y="687" x="2063"/><text style="font-weight:Normal; font-size: 12px; text-anchor: start; font-family: arial,helvetica; fill: #333333;" y="672" x="2048"/><text style="font-weight:Normal; font-size: 12px; text-anchor: middle; font-family: arial,helvetica; fill: #333333;" y="651" x="2058"/></g><g transform="translate(0,0)"><g transform="matrix(1,0,0,1,2297,280)"><path style="fill:none;stroke:#333333;stroke-width:3.0;" d="m100.57796140827095,29.26881934366494c0,4.810975287874417 -4.345878094268813,8.710332960793401 -9.707764299488547,8.710332960793401l-81.13245261470001,0c-5.361886205219733,0 -9.707764299488547,-3.8993576729189847 -9.707764299488547,-8.710332960793401l0,-18.043706595790123c0,-4.810975287874417 4.345878094268813,-8.710332960793401 9.707764299488547,-8.710332960793401l82.51895137908494,-2.488593724047799c5.362431712930311,0 9.708309807199125,5.143889067438901 9.708309807199125,9.954864355313317l-1.3870624556858548,19.287748531187916z"/></g><text style="font-weight:bold; font-size: 12px; text-anchor: middle; font-family: arial,helvetica; fill: #333333;" y="303" x="2348">Feedback</text></g><g transform="translate(0,0)"><path style="fill:none;stroke:#333333;stroke-width:2;" d="M2365,363 C2440,342.5 2348,342.5  2348,322"/><polyline style="fill:#ffffff;stroke:#333333;stroke-width:2;fill-opacity:0;" points="2361,336 2348,322 2342,341"/><text style="font-weight:Normal; font-size: 12px; text-anchor: middle; font-family: arial,helvetica; fill: #333333;" y="339" x="2340"/><text style="font-weight:Normal; font-size: 12px; text-anchor: start; font-family: arial,helvetica; fill: #333333;" y="342" x="2384"/><text style="font-weight:Normal; font-size: 12px; text-anchor: middle; font-family: arial,helvetica; fill: #333333;" y="355" x="2346"/></g><g transform="translate(0,0)"><g transform="matrix(1,0,0,1,2330,217)"><path style="fill:none;stroke:#333333;stroke-width:3.0;" d="m157.7693512286603,29.26881934366494c0,4.810975287874417 -6.8170636772844135,8.710332960793401 -15.227865567825171,8.710332960793401l-127.26659233678433,0c-8.410801890540759,0 -15.227865567825171,-3.8993576729189847 -15.227865567825171,-8.710332960793401l0,-18.043706595790123c0,-4.810975287874417 6.8170636772844135,-8.710332960793401 15.227865567825171,-8.710332960793401l129.44149235934893,-2.488593724047799c8.411657588910293,0 15.228721266194706,5.143889067438901 15.228721266194706,9.954864355313317l-2.175784244213106,19.287748531187916z"/></g><text style="font-weight:bold; font-size: 12px; text-anchor: middle; font-family: arial,helvetica; fill: #333333;" y="240" x="2410">Show reward earned</text></g><g transform="translate(0,0)"><path style="fill:none;stroke:#333333;stroke-width:2;" d="M2401,299 C2405.5,299 2410,279  2410,259"/><polyline style="fill:#ffffff;stroke:#333333;stroke-width:2;fill-opacity:0;" points="2419,276 2410,259 2399,276"/><text style="font-weight:Normal; font-size: 12px; text-anchor: middle; font-family: arial,helvetica; fill: #333333;" y="269" x="2392"/><text style="font-weight:Normal; font-size: 12px; text-anchor: start; font-family: arial,helvetica; fill: #333333;" y="286" x="2407"/><text style="font-weight:Normal; font-size: 12px; text-anchor: middle; font-family: arial,helvetica; fill: #333333;" y="282" x="2388"/></g><g transform="translate(0,0)"><g transform="matrix(1,0,0,1,1700,842)"><path style="fill:none;stroke:#333333;stroke-width:3.0;" d="m85.78708473058404,29.26881934366494c0,4.810975287874417 -3.7067783745233993,8.710332960793401 -8.280151902504937,8.710332960793401l-69.20120958312647,0c-4.573373527981537,0 -8.280151902504937,-3.8993576729189847 -8.280151902504937,-8.710332960793401l0,-18.043706595790123c0,-4.810975287874417 3.7067783745233993,-8.710332960793401 8.280151902504937,-8.710332960793401l70.38381147039597,-2.488593724047799c4.573838813969971,0 8.28061718849337,5.143889067438901 8.28061718849337,9.954864355313317l-1.1830826827908762,19.287748531187916z"/></g><text style="font-weight:bold; font-size: 12px; text-anchor: middle; font-family: arial,helvetica; fill: #333333;" y="865" x="1743">Cancel</text></g><g transform="translate(0,0)"><path style="fill:none;stroke:#333333;stroke-width:2;" d="M1359,507 C1359,464.5 1356,422  1353,422"/><polyline style="fill:#ffffff;stroke:#333333;stroke-width:2;fill-opacity:0;" points="1372,423 1353,422 1361,440"/><text style="font-weight:Normal; font-size: 12px; text-anchor: middle; font-family: arial,helvetica; fill: #333333;" y="438" x="1338"/><text style="font-weight:Normal; font-size: 12px; text-anchor: start; font-family: arial,helvetica; fill: #333333;" y="448" x="1357"/><text style="font-weight:Normal; font-size: 12px; text-anchor: middle; font-family: arial,helvetica; fill: #333333;" y="495" x="1343"/></g><g transform="translate(0,0)"><path style="fill:none;stroke:#333333;stroke-width:2;" d="M1753,764 C1833,801 1743,801  1743,838"/><polyline style="fill:#ffffff;stroke:#333333;stroke-width:2;fill-opacity:0;" points="1735,819 1743,838 1755,822"/><text style="font-weight:Normal; font-size: 12px; text-anchor: middle; font-family: arial,helvetica; fill: #333333;" y="825" x="1759"/><text style="font-weight:Normal; font-size: 12px; text-anchor: start; font-family: arial,helvetica; fill: #333333;" y="801" x="1778"/><text style="font-weight:Normal; font-size: 12px; text-anchor: middle; font-family: arial,helvetica; fill: #333333;" y="778" x="1766"/></g><g transform="translate(0,0)"><g transform="matrix(1,0,0,1,1255,265)"><path style="fill:rgb(102,102,255);stroke:rgb(91,91,229);stroke-width:3.0;" d="m73.95438338843452,29.26881934366494c0,4.810975287874417 -3.195498598727069,8.710332960793401 -7.13806198491805,8.710332960793401l-59.656215157867656,0c-3.942563386190981,0 -7.13806198491805,-3.8993576729189847 -7.13806198491805,-8.710332960793401l0,-18.043706595790123c0,-4.810975287874417 3.195498598727069,-8.710332960793401 7.13806198491805,-8.710332960793401l60.675699543444814,-2.488593724047799c3.9429644948016995,0 7.1384630935287685,5.143889067438901 7.1384630935287685,9.954864355313317l-1.0198988644748934,19.287748531187916z"/></g><text style="font-weight:bold; font-size: 12px; text-anchor: middle; font-family: arial,helvetica; fill: #ffffff;" y="288" x="1292">Data</text></g><g transform="translate(0,0)"><path style="fill:none;stroke:rgb(91,91,229);stroke-width:2;" d="M1292,401 C1292,353 1292,353  1292,305"/><text style="font-weight:Normal; font-size: 12px; text-anchor: middle; font-family: arial,helvetica; fill: #ffffff;" y="321" x="1277"/><text style="font-weight:Normal; font-size: 12px; text-anchor: start; font-family: arial,helvetica; fill: #ffffff;" y="353" x="1292"/><text style="font-weight:Normal; font-size: 12px; text-anchor: middle; font-family: arial,helvetica; fill: #ffffff;" y="387" x="1277"/></g><g transform="translate(0,0)"><g transform="matrix(1,0,0,1,1385,188)"><path style="fill:rgb(102,102,255);stroke:rgb(91,91,229);stroke-width:3.0;" d="m76.9125587239719,29.26881934366494c0,4.810975287874417 -3.323318542676151,8.710332960793401 -7.423584464314771,8.710332960793401l-62.04246376418236,0c-4.100265921638619,0 -7.423584464314771,-3.8993576729189847 -7.423584464314771,-8.710332960793401l0,-18.043706595790123c0,-4.810975287874417 3.323318542676151,-8.710332960793401 7.423584464314771,-8.710332960793401l63.1027275251826,-2.488593724047799c4.100683074593768,0 7.424001617269918,5.143889067438901 7.424001617269918,9.954864355313317l-1.060694819053889,19.287748531187916z"/></g><text style="font-weight:bold; font-size: 12px; text-anchor: middle; font-family: arial,helvetica; fill: #ffffff;" y="211" x="1424">email</text></g><g transform="translate(0,0)"><path style="fill:none;stroke:rgb(91,91,229);stroke-width:2;" d="M1332,284 C1357.5,284 1357.5,207  1383,207"/><text style="font-weight:Normal; font-size: 12px; text-anchor: middle; font-family: arial,helvetica; fill: #ffffff;" y="212" x="1362"/><text style="font-weight:Normal; font-size: 12px; text-anchor: start; font-family: arial,helvetica; fill: #ffffff;" y="245" x="1357"/><text style="font-weight:Normal; font-size: 12px; text-anchor: middle; font-family: arial,helvetica; fill: #ffffff;" y="264" x="1326"/></g><g transform="translate(0,0)"><g transform="matrix(1,0,0,1,1383,232)"><path style="fill:rgb(102,102,255);stroke:rgb(91,91,229);stroke-width:3.0;" d="m81.84285094986754,29.26881934366494c0,4.810975287874417 -3.5363517825912893,8.710332960793401 -7.899455263309308,8.710332960793401l-66.01954477470687,0c-4.363103480718019,0 -7.899455263309308,-3.8993576729189847 -7.899455263309308,-8.710332960793401l0,-18.043706595790123c0,-4.810975287874417 3.5363517825912893,-8.710332960793401 7.899455263309308,-8.710332960793401l67.14777416141226,-2.488593724047799c4.363547374247214,0 7.8998991568385035,5.143889067438901 7.8998991568385035,9.954864355313317l-1.1286880766855487,19.287748531187916z"/></g><text style="font-weight:bold; font-size: 12px; text-anchor: middle; font-family: arial,helvetica; fill: #ffffff;" y="255" x="1424">phone</text></g><g transform="translate(0,0)"><path style="fill:none;stroke:rgb(91,91,229);stroke-width:2;" d="M1332,284 C1356.5,284 1356.5,251  1381,251"/><text style="font-weight:Normal; font-size: 12px; text-anchor: middle; font-family: arial,helvetica; fill: #ffffff;" y="247" x="1359"/><text style="font-weight:Normal; font-size: 12px; text-anchor: start; font-family: arial,helvetica; fill: #ffffff;" y="267" x="1356"/><text style="font-weight:Normal; font-size: 12px; text-anchor: middle; font-family: arial,helvetica; fill: #ffffff;" y="264" x="1334"/></g><g transform="translate(0,0)"><g transform="matrix(1,0,0,1,1367,278)"><path style="fill:rgb(102,102,255);stroke:rgb(91,91,229);stroke-width:3.0;" d="m148.89482522204818,29.26881934366494c0,4.810975287874417 -6.433603845437165,8.710332960793401 -14.371298129635006,8.710332960793401l-120.10784651784022,0c-7.937694284197841,0 -14.371298129635006,-3.8993576729189847 -14.371298129635006,-8.710332960793401l0,-18.043706595790123c0,-4.810975287874417 6.433603845437165,-8.710332960793401 14.371298129635006,-8.710332960793401l122.16040841413556,-2.488593724047799c7.938501849534089,0 14.372105694971253,5.143889067438901 14.372105694971253,9.954864355313317l-2.053396380476119,19.287748531187916z"/></g><text style="font-weight:bold; font-size: 12px; text-anchor: middle; font-family: arial,helvetica; fill: #ffffff;" y="301" x="1442">credit card / paypal</text></g><g transform="translate(0,0)"><path style="fill:none;stroke:rgb(91,91,229);stroke-width:2;" d="M1332,284 C1348.5,284 1348.5,297  1365,297"/><text style="font-weight:Normal; font-size: 12px; text-anchor: middle; font-family: arial,helvetica; fill: #ffffff;" y="278" x="1355"/><text style="font-weight:Normal; font-size: 12px; text-anchor: start; font-family: arial,helvetica; fill: #ffffff;" y="290" x="1348"/><text style="font-weight:Normal; font-size: 12px; text-anchor: middle; font-family: arial,helvetica; fill: #ffffff;" y="275" x="1350"/></g><g transform="translate(0,0)"><g transform="matrix(1,0,0,1,1263,204)"><path style="fill:rgb(102,102,255);stroke:rgb(91,91,229);stroke-width:3.0;" d="m96.63372762755444,29.26881934366494c0,4.810975287874417 -4.175451502336703,8.710332960793401 -9.327067660292917,8.710332960793401l-77.9507878062804,0c-5.151616157956214,0 -9.327067660292917,-3.8993576729189847 -9.327067660292917,-8.710332960793401l0,-18.043706595790123c0,-4.810975287874417 4.175451502336703,-8.710332960793401 9.327067660292917,-8.710332960793401l79.28291407010121,-2.488593724047799c5.152140273207554,0 9.327591775544256,5.143889067438901 9.327591775544256,9.954864355313317l-1.3326678495805273,19.287748531187916z"/></g><text style="font-weight:bold; font-size: 12px; text-anchor: middle; font-family: arial,helvetica; fill: #ffffff;" y="227" x="1312">full name</text></g><g transform="translate(0,0)"><path style="fill:none;stroke:rgb(91,91,229);stroke-width:2;" d="M1292,263 C1292,253.5 1312,253.5  1312,244"/><text style="font-weight:Normal; font-size: 12px; text-anchor: middle; font-family: arial,helvetica; fill: #ffffff;" y="245" x="1290"/><text style="font-weight:Normal; font-size: 12px; text-anchor: start; font-family: arial,helvetica; fill: #ffffff;" y="253" x="1302"/><text style="font-weight:Normal; font-size: 12px; text-anchor: middle; font-family: arial,helvetica; fill: #ffffff;" y="243" x="1291"/></g><g transform="translate(0,0)"><g transform="matrix(1,0,0,1,1298,149)"><path style="fill:rgb(102,102,255);stroke:rgb(91,91,229);stroke-width:3.0;" d="m67.05197427218063,29.26881934366494c0,4.810975287874417 -2.8972520628458756,8.710332960793401 -6.471842866325698,8.710332960793401l-54.08830174313334,0c-3.5745908034798224,0 -6.471842866325698,-3.8993576729189847 -6.471842866325698,-8.710332960793401l0,-18.043706595790123c0,-4.810975287874417 2.8972520628458756,-8.710332960793401 6.471842866325698,-8.710332960793401l55.012634252723295,-2.488593724047799c3.5749544752868743,0 6.47220653813275,5.143889067438901 6.47220653813275,9.954864355313317l-0.92470830379057,19.287748531187916z"/></g><text style="font-weight:bold; font-size: 12px; text-anchor: middle; font-family: arial,helvetica; fill: #ffffff;" y="172" x="1332">last</text></g><g transform="translate(0,0)"><path style="fill:none;stroke:rgb(91,91,229);stroke-width:2;" d="M1312,202 C1312,195.5 1332,195.5  1332,189"/><text style="font-weight:Normal; font-size: 12px; text-anchor: middle; font-family: arial,helvetica; fill: #ffffff;" y="185" x="1310"/><text style="font-weight:Normal; font-size: 12px; text-anchor: start; font-family: arial,helvetica; fill: #ffffff;" y="195" x="1322"/><text style="font-weight:Normal; font-size: 12px; text-anchor: middle; font-family: arial,helvetica; fill: #ffffff;" y="182" x="1314"/></g><g transform="translate(0,0)"><g transform="matrix(1,0,0,1,1218,149)"><path style="fill:rgb(102,102,255);stroke:rgb(91,91,229);stroke-width:3.0;" d="m68.03803271735975,29.26881934366494c0,4.810975287874417 -2.939858710828903,8.710332960793401 -6.567017026124605,8.710332960793401l-54.88371794523824,0c-3.6271583152957017,0 -6.567017026124605,-3.8993576729189847 -6.567017026124605,-8.710332960793401l0,-18.043706595790123c0,-4.810975287874417 2.939858710828903,-8.710332960793401 6.567017026124605,-8.710332960793401l55.82164357996922,-2.488593724047799c3.627527335217563,0 6.567386046046466,5.143889067438901 6.567386046046466,9.954864355313317l-0.9383069553169018,19.287748531187916z"/></g><text style="font-weight:bold; font-size: 12px; text-anchor: middle; font-family: arial,helvetica; fill: #ffffff;" y="172" x="1252">first</text></g><g transform="translate(0,0)"><path style="fill:none;stroke:rgb(91,91,229);stroke-width:2;" d="M1261,223 C1181,223 1252,269  1252,189"/><text style="font-weight:Normal; font-size: 12px; text-anchor: middle; font-family: arial,helvetica; fill: #ffffff;" y="207" x="1242"/><text style="font-weight:Normal; font-size: 12px; text-anchor: start; font-family: arial,helvetica; fill: #ffffff;" y="236" x="1226"/><text style="font-weight:Normal; font-size: 12px; text-anchor: middle; font-family: arial,helvetica; fill: #ffffff;" y="213" x="1243"/></g><g transform="translate(0,0)"><g transform="matrix(1,0,0,1,1386,636)"><path style="fill:none;stroke:#333333;stroke-width:3.0;" d="m118.32701342149522,29.26881934366494c0,4.810975287874417 -5.1127977579633095,8.710332960793401 -11.420899175868879,8.710332960793401l-95.44994425258825,0c-6.3081014179055686,0 -11.420899175868879,-3.8993576729189847 -11.420899175868879,-8.710332960793401l0,-18.043706595790123c0,-4.810975287874417 5.1127977579633095,-8.710332960793401 11.420899175868879,-8.710332960793401l97.08111926951169,-2.488593724047799c6.308743191682719,0 11.42154094964603,5.143889067438901 11.42154094964603,9.954864355313317l-1.6318381831598292,19.287748531187916z"/></g><text style="font-weight:bold; font-size: 12px; text-anchor: middle; font-family: arial,helvetica; fill: #333333;" y="659" x="1446">Curated view</text></g><g transform="translate(0,0)"><path style="fill:none;stroke:#333333;stroke-width:2;" d="M1523,530 C1516.5,530 1516.5,655  1510,655"/><polyline style="fill:#ffffff;stroke:#333333;stroke-width:2;fill-opacity:0;" points="1515,635 1510,655 1529,650"/><text style="font-weight:Normal; font-size: 12px; text-anchor: middle; font-family: arial,helvetica; fill: #333333;" y="640" x="1523"/><text style="font-weight:Normal; font-size: 12px; text-anchor: start; font-family: arial,helvetica; fill: #333333;" y="592" x="1516"/><text style="font-weight:Normal; font-size: 12px; text-anchor: middle; font-family: arial,helvetica; fill: #333333;" y="544" x="1536"/></g><g transform="translate(0,0)"><g transform="matrix(1,0,0,1,1477,686)"><path style="fill:none;stroke:#333333;stroke-width:3.0;" d="m139.0342407702569,29.26881934366494c0,4.810975287874417 -6.00753736560689,8.710332960793401 -13.419556531645933,8.710332960793401l-112.1536844967912,0c-7.412019166039044,0 -13.419556531645933,-3.8993576729189847 -13.419556531645933,-8.710332960793401l0,-18.043706595790123c0,-4.810975287874417 6.00753736560689,-8.710332960793401 13.419556531645933,-8.710332960793401l114.07031514167625,-2.488593724047799c7.412773250227196,0 13.420310615834085,5.143889067438901 13.420310615834085,9.954864355313317l-1.9174098652127995,19.287748531187916z"/></g><text style="font-weight:bold; font-size: 12px; text-anchor: middle; font-family: arial,helvetica; fill: #333333;" y="709" x="1547">Select interpreter</text></g><g transform="translate(0,0)"><path style="fill:none;stroke:#333333;stroke-width:2;" d="M1446,676 C1446,690.5 1459.5,705  1473,705"/><polyline style="fill:#ffffff;stroke:#333333;stroke-width:2;fill-opacity:0;" points="1455,714 1473,705 1456,694"/><text style="font-weight:Normal; font-size: 12px; text-anchor: middle; font-family: arial,helvetica; fill: #333333;" y="683" x="1473"/><text style="font-weight:Normal; font-size: 12px; text-anchor: start; font-family: arial,helvetica; fill: #333333;" y="695" x="1454"/><text style="font-weight:Normal; font-size: 12px; text-anchor: middle; font-family: arial,helvetica; fill: #333333;" y="674" x="1465"/></g><g transform="translate(0,0)"><g transform="matrix(1,0,0,1,1612,745)"><path style="fill:none;stroke:#333333;stroke-width:3.0;" d="m137.06212387989862,29.26881934366494c0,4.810975287874417 -5.922324069640833,8.710332960793401 -13.229208212048116,8.710332960793401l-110.56285209258138,0c-7.3068841424072835,0 -13.229208212048116,-3.8993576729189847 -13.229208212048116,-8.710332960793401l0,-18.043706595790123c0,-4.810975287874417 5.922324069640833,-8.710332960793401 13.229208212048116,-8.710332960793401l112.45229648718437,-2.488593724047799c7.307627530365816,0 13.229951600006649,5.143889067438901 13.229951600006649,9.954864355313317l-1.8902125621601356,19.287748531187916z"/></g><text style="font-weight:bold; font-size: 12px; text-anchor: middle; font-family: arial,helvetica; fill: #333333;" y="768" x="1681">Payment options</text></g><g transform="translate(0,0)"><path style="fill:none;stroke:#333333;stroke-width:2;" d="M1620,705 C1700,734.5 1528,734.5  1608,764"/><polyline style="fill:#ffffff;stroke:#333333;stroke-width:2;fill-opacity:0;" points="1588,766 1608,764 1595,748"/><text style="font-weight:Normal; font-size: 12px; text-anchor: middle; font-family: arial,helvetica; fill: #333333;" y="750" x="1626"/><text style="font-weight:Normal; font-size: 12px; text-anchor: start; font-family: arial,helvetica; fill: #333333;" y="734" x="1614"/><text style="font-weight:Normal; font-size: 12px; text-anchor: middle; font-family: arial,helvetica; fill: #333333;" y="720" x="1632"/></g><g transform="translate(0,0)"><g transform="matrix(1,0,0,1,1525,508)"><path style="fill:none;stroke:#333333;stroke-width:3.0;" d="m108.46642896970397,34.66044395960322c0,5.69720757774602 -4.686731278133034,10.314867979886923 -10.469157577879805,10.314867979886923l-87.49578223153922,0c-5.7824262997467715,0 -10.469157577879805,-4.617660402140903 -10.469157577879805,-10.314867979886923l0,-21.367547284488303c0,-5.69720757774602 4.686731278133034,-10.314867979886923 10.469157577879805,-10.314867979886923l88.99102599705239,-2.947018883740814c5.783014592375826,0 10.46974587050886,6.091447579861857 10.46974587050886,11.788655157607876l-1.4958516678965101,22.84075483956464z"/></g><text style="font-weight:bold; font-size: 14px; text-anchor: middle; font-family: arial,helvetica; fill: #333333;" y="535" x="1580">Request</text></g><g transform="translate(0,0)"><g transform="matrix(1,0,0,1,1740,509)"><path style="fill:none;stroke:#333333;stroke-width:3.0;" d="m121.2851887570326,34.66044395960322c0,5.69720757774602 -5.240617701912392,10.314867979886923 -11.706421655265599,10.314867979886923l-97.83619285890295,0c-6.465803953353207,0 -11.706421655265599,-4.617660402140903 -11.706421655265599,-10.314867979886923l0,-21.367547284488303c0,-5.69720757774602 5.240617701912392,-10.314867979886923 11.706421655265599,-10.314867979886923l99.50814725124948,-2.947018883740814c6.466461771474787,0 11.707079473387179,6.091447579861857 11.707079473387179,11.788655157607876l-1.672634137738825,22.84075483956464z"/></g><text style="font-weight:bold; font-size: 14px; text-anchor: middle; font-family: arial,helvetica; fill: #333333;" y="536" x="1801">Interaction</text></g><g transform="translate(0,0)"><path style="fill:none;stroke:#333333;stroke-width:2;" d="M1637,530 C1686.5,530 1686.5,531  1736,531"/><polyline style="fill:#ffffff;stroke:#333333;stroke-width:2;fill-opacity:0;" points="1718,540 1736,531 1718,520"/><text style="font-weight:Normal; font-size: 12px; text-anchor: middle; font-family: arial,helvetica; fill: #333333;" y="516" x="1722"/><text style="font-weight:Normal; font-size: 12px; text-anchor: start; font-family: arial,helvetica; fill: #333333;" y="530" x="1686"/><text style="font-weight:Normal; font-size: 12px; text-anchor: middle; font-family: arial,helvetica; fill: #333333;" y="515" x="1650"/></g><g transform="translate(0,0)"><g transform="matrix(1,0,0,1,1698,394)"><path style="fill:rgb(102,255,0);stroke:rgb(91,229,0);stroke-width:3.0;" d="m116.35489653113697,40.82230066353268c0,6.710044480456423 -5.027584461997255,12.148622287422375 -11.230550856271064,12.148622287422375l-93.85911184837845,0c-6.202966394273809,0 -11.230550856271064,-5.438577806965952 -11.230550856271064,-12.148622287422375l0,-25.166222357286223c0,-6.710044480456423 5.027584461997255,-12.148622287422375 11.230550856271064,-12.148622287422375l95.46310061501984,-3.470933351961403c6.2035974718213405,0 11.231181933818595,7.1743715940595205 11.231181933818595,13.884416074515942l-1.6046408801071657,26.90133347770946z"/></g><text style="font-weight:bold; font-size: 18px; text-anchor: middle; font-family: arial,helvetica; fill: #333333;" y="428" x="1757">Start</text></g><g transform="translate(0,0)"><path style="fill:none;stroke:#333333;stroke-width:2;" d="M1801,507 C1801,479 1757,479  1757,451"/><polyline style="fill:#ffffff;stroke:#333333;stroke-width:2;fill-opacity:0;" points="1768,467 1757,451 1748,469"/><text style="font-weight:Normal; font-size: 12px; text-anchor: middle; font-family: arial,helvetica; fill: #333333;" y="470" x="1755"/><text style="font-weight:Normal; font-size: 12px; text-anchor: start; font-family: arial,helvetica; fill: #333333;" y="479" x="1779"/><text style="font-weight:Normal; font-size: 12px; text-anchor: middle; font-family: arial,helvetica; fill: #333333;" y="505" x="1781"/></g><g transform="translate(0,0)"><g transform="matrix(1,0,0,1,1530,356)"><path style="fill:none;stroke:#333333;stroke-width:3.0;" d="m136.0760654347195,29.26881934366494c0,4.810975287874417 -5.879717421657806,8.710332960793401 -13.13403405224921,8.710332960793401l-109.76743589047648,0c-7.254316630591403,0 -13.13403405224921,-3.8993576729189847 -13.13403405224921,-8.710332960793401l0,-18.043706595790123c0,-4.810975287874417 5.879717421657806,-8.710332960793401 13.13403405224921,-8.710332960793401l111.64328715993844,-2.488593724047799c7.255054670435126,0 13.134772092092932,5.143889067438901 13.134772092092932,9.954864355313317l-1.8766139106338036,19.287748531187916z"/></g><text style="font-weight:bold; font-size: 12px; text-anchor: middle; font-family: arial,helvetica; fill: #333333;" y="379" x="1599">consumer joined</text></g><g transform="translate(0,0)"><path style="fill:none;stroke:#333333;stroke-width:2;" d="M1670,375 C1682,375 1682,420  1694,420"/><polyline style="fill:#ffffff;stroke:#333333;stroke-width:2;fill-opacity:0;" points="1675,426 1694,420 1678,406"/><text style="font-weight:Normal; font-size: 12px; text-anchor: middle; font-family: arial,helvetica; fill: #333333;" y="399" x="1699"/><text style="font-weight:Normal; font-size: 12px; text-anchor: start; font-family: arial,helvetica; fill: #333333;" y="397" x="1682"/><text style="font-weight:Normal; font-size: 12px; text-anchor: middle; font-family: arial,helvetica; fill: #333333;" y="379" x="1689"/></g><g transform="translate(0,0)"><path style="fill:none;stroke:#333333;stroke-width:2;" d="M1427,531 C1474,531 1474,530  1521,530"/><polyline style="fill:#ffffff;stroke:#333333;stroke-width:2;fill-opacity:0;" points="1503,540 1521,530 1503,520"/><text style="font-weight:Normal; font-size: 12px; text-anchor: middle; font-family: arial,helvetica; fill: #333333;" y="516" x="1507"/><text style="font-weight:Normal; font-size: 12px; text-anchor: start; font-family: arial,helvetica; fill: #333333;" y="530" x="1474"/><text style="font-weight:Normal; font-size: 12px; text-anchor: middle; font-family: arial,helvetica; fill: #333333;" y="516" x="1439"/></g><g transform="translate(0,0)"><g transform="matrix(1,0,0,1,1851,348)"><path style="fill:none;stroke:#333333;stroke-width:3.0;" d="m138.04818232507776,29.26881934366494c0,4.810975287874417 -5.964930717623861,8.710332960793401 -13.324382371847024,8.710332960793401l-111.35826829468628,0c-7.359451654223163,0 -13.324382371847024,-3.8993576729189847 -13.324382371847024,-8.710332960793401l0,-18.043706595790123c0,-4.810975287874417 5.964930717623861,-8.710332960793401 13.324382371847024,-8.710332960793401l113.2613058144303,-2.488593724047799c7.360200390296505,0 13.325131107920367,5.143889067438901 13.325131107920367,9.954864355313317l-1.9038112136864673,19.287748531187916z"/></g><text style="font-weight:bold; font-size: 12px; text-anchor: middle; font-family: arial,helvetica; fill: #333333;" y="371" x="1921">interpreter joined</text></g><g transform="translate(0,0)"><path style="fill:none;stroke:#333333;stroke-width:2;" d="M1849,367 C1834.5,367 1834.5,420  1820,420"/><polyline style="fill:#ffffff;stroke:#333333;stroke-width:2;fill-opacity:0;" points="1835,407 1820,420 1838,426"/><text style="font-weight:Normal; font-size: 12px; text-anchor: middle; font-family: arial,helvetica; fill: #333333;" y="413" x="1838"/><text style="font-weight:Normal; font-size: 12px; text-anchor: start; font-family: arial,helvetica; fill: #333333;" y="393" x="1834"/><text style="font-weight:Normal; font-size: 12px; text-anchor: middle; font-family: arial,helvetica; fill: #333333;" y="386" x="1854"/></g><g transform="translate(0,0)"><g transform="matrix(1,0,0,1,1699,274)"><path style="fill:none;stroke:#333333;stroke-width:3.0;" d="m103.53613674380833,29.26881934366494c0,4.810975287874417 -4.473698038217896,8.710332960793401 -9.993286778885269,8.710332960793401l-83.51870122101472,0c-5.5195887406673725,0 -9.993286778885269,-3.8993576729189847 -9.993286778885269,-8.710332960793401l0,-18.043706595790123c0,-4.810975287874417 4.473698038217896,-8.710332960793401 9.993286778885269,-8.710332960793401l84.94597936082273,-2.488593724047799c5.52015029272238,0 9.993848330940276,5.143889067438901 9.993848330940276,9.954864355313317l-1.4278584102648506,19.287748531187916z"/></g><text style="font-weight:bold; font-size: 12px; text-anchor: middle; font-family: arial,helvetica; fill: #333333;" y="297" x="1751">Start timer</text></g><g transform="translate(0,0)"><path style="fill:none;stroke:#333333;stroke-width:2;" d="M1757,392 C1757,354 1751,354  1751,316"/><polyline style="fill:#ffffff;stroke:#333333;stroke-width:2;fill-opacity:0;" points="1761,333 1751,316 1741,333"/><text style="font-weight:Normal; font-size: 12px; text-anchor: middle; font-family: arial,helvetica; fill: #333333;" y="330" x="1738"/><text style="font-weight:Normal; font-size: 12px; text-anchor: start; font-family: arial,helvetica; fill: #333333;" y="354" x="1754"/><text style="font-weight:Normal; font-size: 12px; text-anchor: middle; font-family: arial,helvetica; fill: #333333;" y="380" x="1741"/></g><g transform="translate(0,0)"><g transform="matrix(1,0,0,1,1451,1022)"><path style="fill:none;stroke:#333333;stroke-width:3.0;" d="m90.71737695647968,29.26881934366494c0,4.810975287874417 -3.9198116144385375,8.710332960793401 -8.756022701499473,8.710332960793401l-73.178290593651,0c-4.836211087060936,0 -8.756022701499473,-3.8993576729189847 -8.756022701499473,-8.710332960793401l0,-18.043706595790123c0,-4.810975287874417 3.9198116144385375,-8.710332960793401 8.756022701499473,-8.710332960793401l74.42885810662564,-2.488593724047799c4.836703113623418,0 8.756514728061957,5.143889067438901 8.756514728061957,9.954864355313317l-1.2510759404225358,19.287748531187916z"/></g><text style="font-weight:bold; font-size: 12px; text-anchor: middle; font-family: arial,helvetica; fill: #333333;" y="1045" x="1497">Pro Tier</text></g><g transform="translate(0,0)"><g transform="matrix(1,0,0,1,1246,991)"><path style="fill:none;stroke:#333333;stroke-width:3.0;" d="m163.68570189973508,55.45671033536515c0,9.115532124393631 -7.072703565182579,16.503788767819078 -15.798910526618617,16.503788767819078l-132.03908954941375,0c-8.726206961436038,0 -15.798910526618617,-7.388256643425445 -15.798910526618617,-16.503788767819078l0,-34.18807565518129c0,-9.115532124393631 7.072703565182579,-16.503788767819078 15.798910526618617,-16.503788767819078l134.29554832282452,-4.715230213985302c8.727094748494428,0 15.799798313677007,9.746316127778972 15.799798313677007,18.861848252172603l-2.2573761533710974,36.54520774330342z"/></g><text style="font-weight:bold; font-size: 12px; text-anchor: middle; font-family: arial,helvetica; fill: #333333;" y="1014" x="1329">Freemium Tier</text><text style="font-weight:bold; font-size: 12px; text-anchor: middle; font-family: arial,helvetica; fill: #333333;" y="1031" x="1329"/><text style="font-weight:bold; font-size: 12px; text-anchor: middle; font-family: arial,helvetica; fill: #333333;" y="1048" x="1329">1. free trial for the first</text></g><g transform="translate(0,0)"><g transform="matrix(1,0,0,1,2171,694)"><path style="fill:none;stroke:#333333;stroke-width:3.0;" d="m143.9645329961525,29.26881934366494c0,4.810975287874417 -6.220570605522027,8.710332960793401 -13.895427330640468,8.710332960793401l-116.1307655073157,0c-7.674856725118442,0 -13.895427330640468,-3.8993576729189847 -13.895427330640468,-8.710332960793401l0,-18.043706595790123c0,-4.810975287874417 6.220570605522027,-8.710332960793401 13.895427330640468,-8.710332960793401l118.11536177790589,-2.488593724047799c7.6756375498806415,0 13.896208155402668,5.143889067438901 13.896208155402668,9.954864355313317l-1.9854031228444589,19.287748531187916z"/></g><text style="font-weight:bold; font-size: 12px; text-anchor: middle; font-family: arial,helvetica; fill: #333333;" y="717" x="2244">Show total charge</text></g><g transform="translate(0,0)"><path style="fill:none;stroke:#333333;stroke-width:2;" d="M2097,661 C2097,675.5 2244,675.5  2244,690"/><polyline style="fill:#ffffff;stroke:#333333;stroke-width:2;fill-opacity:0;" points="2227,679 2244,690 2244,670"/><text style="font-weight:Normal; font-size: 12px; text-anchor: middle; font-family: arial,helvetica; fill: #333333;" y="674" x="2231"/><text style="font-weight:Normal; font-size: 12px; text-anchor: start; font-family: arial,helvetica; fill: #333333;" y="675" x="2170"/><text style="font-weight:Normal; font-size: 12px; text-anchor: middle; font-family: arial,helvetica; fill: #333333;" y="648" x="2113"/></g><g transform="translate(0,0)"><g transform="matrix(1,0,0,1,1958,508)"><path style="fill:none;stroke:#333333;stroke-width:3.0;" d="m168.6159941256307,34.66044395960322c0,5.69720757774602 -7.2857368050977165,10.314867979886923 -16.27478132561315,10.314867979886923l-136.01617055993825,0c-8.989044520515435,0 -16.27478132561315,-4.617660402140903 -16.27478132561315,-10.314867979886923l0,-21.367547284488303c0,-5.69720757774602 7.2857368050977165,-10.314867979886923 16.27478132561315,-10.314867979886923l138.34059495905416,-2.947018883740814c8.989959048147874,0 16.27569585324559,6.091447579861857 16.27569585324559,11.788655157607876l-2.325369411002757,22.84075483956464z"/></g><text style="font-weight:bold; font-size: 14px; text-anchor: middle; font-family: arial,helvetica; fill: #333333;" y="535" x="2043">Post interpretation</text></g><g transform="translate(0,0)"><g transform="matrix(1,0,0,1,2237,774)"><path style="fill:none;stroke:#333333;stroke-width:3.0;" d="m179.4626370226011,29.26881934366494c0,4.810975287874417 -7.754409932911019,8.710332960793401 -17.32169708340113,8.710332960793401l-144.76574878309216,0c-9.567287150490111,0 -17.32169708340113,-3.8993576729189847 -17.32169708340113,-8.710332960793401l0,-18.043706595790123c0,-4.810975287874417 7.754409932911019,-8.710332960793401 17.32169708340113,-8.710332960793401l147.2396975587594,-2.488593724047799c9.568260507385457,0 17.322670440296477,5.143889067438901 17.322670440296477,9.954864355313317l-2.4749545777924076,19.287748531187916z"/></g><text style="font-weight:bold; font-size: 12px; text-anchor: middle; font-family: arial,helvetica; fill: #333333;" y="797" x="2328">Charge RATE * MINUTE</text></g><g transform="translate(0,0)"><path style="fill:none;stroke:#333333;stroke-width:2;" d="M2235,793 C2155,764.5 2244,816  2244,736"/><polyline style="fill:#ffffff;stroke:#333333;stroke-width:2;fill-opacity:0;" points="2252,753 2244,736 2233,752"/><text style="font-weight:Normal; font-size: 12px; text-anchor: middle; font-family: arial,helvetica; fill: #333333;" y="747" x="2227"/><text style="font-weight:Normal; font-size: 12px; text-anchor: start; font-family: arial,helvetica; fill: #333333;" y="783" x="2209"/><text style="font-weight:Normal; font-size: 12px; text-anchor: middle; font-family: arial,helvetica; fill: #333333;" y="777" x="2222"/></g><g transform="translate(0,0)"><g transform="matrix(1,0,0,1,2023,407)"><path style="fill:rgb(0,153,0);stroke:rgb(0,127,0);stroke-width:3.0;" d="m224.8213255008409,29.26881934366494c0,4.810975287874417 -9.714315740130289,8.710332960793401 -21.699708434150867,8.710332960793401l-181.35489407991764,0c-11.985392694020579,0 -21.699708434150867,-3.8993576729189847 -21.699708434150867,-8.710332960793401l0,-18.043706595790123c0,-4.810975287874417 9.714315740130289,-8.710332960793401 21.699708434150867,-8.710332960793401l184.4541266120722,-2.488593724047799c11.986612064197166,0 21.700927804327453,5.143889067438901 21.700927804327453,9.954864355313317l-3.1004925480036754,19.287748531187916z"/></g><text style="font-weight:bold; font-size: 12px; text-anchor: middle; font-family: arial,helvetica; fill: #ffffff;" y="430" x="2137">Pre-purchase discounted minutes</text></g><g transform="translate(0,0)"><path style="fill:none;stroke:#333333;stroke-width:2;" d="M2046,506 C2046,477.5 2137,477.5  2137,449"/><polyline style="fill:#ffffff;stroke:#333333;stroke-width:2;fill-opacity:0;" points="2144,467 2137,449 2124,464"/><text style="font-weight:Normal; font-size: 12px; text-anchor: middle; font-family: arial,helvetica; fill: #333333;" y="443" x="2115"/><text style="font-weight:Normal; font-size: 12px; text-anchor: start; font-family: arial,helvetica; fill: #333333;" y="477" x="2091"/><text style="font-weight:Normal; font-size: 12px; text-anchor: middle; font-family: arial,helvetica; fill: #333333;" y="486" x="2048"/></g><g transform="translate(0,0)"><g transform="matrix(1,0,0,1,2189,344)"><path style="fill:none;stroke:#333333;stroke-width:3.0;" d="m171.57416946116808,29.26881934366494c0,4.810975287874417 -7.413556749046799,8.710332960793401 -16.560303805009873,8.710332960793401l-138.40241916625294,0c-9.146747055963074,0 -16.560303805009873,-3.8993576729189847 -16.560303805009873,-8.710332960793401l0,-18.043706595790123c0,-4.810975287874417 7.413556749046799,-8.710332960793401 16.560303805009873,-8.710332960793401l140.76762294079194,-2.488593724047799c9.147677627939942,0 16.56123437698674,5.143889067438901 16.56123437698674,9.954864355313317l-2.3661653655817525,19.287748531187916z"/></g><text style="font-weight:bold; font-size: 12px; text-anchor: middle; font-family: arial,helvetica; fill: #333333;" y="367" x="2276">Recommend to a friend</text></g><g transform="translate(0,0)"><path style="fill:none;stroke:#333333;stroke-width:2;" d="M2253,426 C2264.5,426 2276,406  2276,386"/><polyline style="fill:#ffffff;stroke:#333333;stroke-width:2;fill-opacity:0;" points="2285,403 2276,386 2265,403"/><text style="font-weight:Normal; font-size: 12px; text-anchor: middle; font-family: arial,helvetica; fill: #333333;" y="391" x="2255"/><text style="font-weight:Normal; font-size: 12px; text-anchor: start; font-family: arial,helvetica; fill: #333333;" y="413" x="2268"/><text style="font-weight:Normal; font-size: 12px; text-anchor: middle; font-family: arial,helvetica; fill: #333333;" y="406" x="2245"/></g><g transform="translate(0,0)"><g transform="matrix(1,0,0,1,1294,509)"><path style="fill:none;stroke:#333333;stroke-width:3.0;" d="m129.17365631846562,34.66044395960322c0,5.69720757774602 -5.581470885776612,10.314867979886923 -12.467814933656857,10.314867979886923l-104.19952247574216,0c-6.886344047880245,0 -12.467814933656857,-4.617660402140903 -12.467814933656857,-10.314867979886923l0,-21.367547284488303c0,-5.69720757774602 5.581470885776612,-10.314867979886923 12.467814933656857,-10.314867979886923l105.98022186921692,-2.947018883740814c6.887044650920301,0 12.468515536696914,6.091447579861857 12.468515536696914,11.788655157607876l-1.7814233499494803,22.84075483956464z"/></g><text style="font-weight:bold; font-size: 14px; text-anchor: middle; font-family: arial,helvetica; fill: #333333;" y="536" x="1359">Pre-request</text></g><g transform="translate(0,0)"><path style="fill:none;stroke:#333333;stroke-width:2;" d="M1242,734 C1266,734 1266,531  1290,531"/><polyline style="fill:#ffffff;stroke:#333333;stroke-width:2;fill-opacity:0;" points="1278,547 1290,531 1270,528"/><text style="font-weight:Normal; font-size: 12px; text-anchor: middle; font-family: arial,helvetica; fill: #333333;" y="543" x="1274"/><text style="font-weight:Normal; font-size: 12px; text-anchor: start; font-family: arial,helvetica; fill: #333333;" y="632" x="1266"/><text style="font-weight:Normal; font-size: 12px; text-anchor: middle; font-family: arial,helvetica; fill: #333333;" y="717" x="1230"/></g><g transform="translate(0,0)"><g transform="matrix(1,0,0,1,1054,708)"><path style="fill:rgb(255,153,0);stroke:rgb(229,137,0);stroke-width:3.0;" d="m9.609744140441785,1.6551882475885311l159.70305104088334,-1.6393764616162425c12.821803420562041,-0.13162225735024488 14.777738055309909,3.1292335930507758 15.03172970280039,7.8325718738985435l1.9158066070986524,35.48098377434879c0.32899146832935794,6.093029510477548 -2.211743350421442,9.809741855430813 -12.673785311632862,9.65408306040035l-165.30346739351293,-2.4590646924243638c-4.570675855308975,-0.06799067968084124 -8.349627250375159,-2.2753561661356474 -8.252672736372265,-5.100264109734292l1.3263271409424744,-38.668669335138496c0.09689018713655917,-2.8249202389221066 3.6813270858571134,-5.053336958520528 8.252672736372265,-5.100264109734292z"/></g><text style="font-weight:bold; font-size: 18px; text-anchor: middle; font-family: arial,helvetica; fill: #333333;" y="742" x="1147">Interpretation</text></g><text style="font-weight:Normal; font-size: 16px; text-anchor: end; font-family: Arial; fill: #ccc;" y="1063" x="2490">http://sketchboard.io</text></svg>